<svg width="39" height="33" viewBox="0 0 39 33" fill="none" xmlns="http://www.w3.org/2000/svg">
<path d="M23 16.2506L16.875 20.4055V12.0957L23 16.2506Z" stroke="white" stroke-width="2.709" stroke-linecap="round" stroke-linejoin="round"/>
<path d="M2 17.7199V14.7801C2 8.76516 2 5.75771 3.58461 3.82263C5.16923 1.88755 7.66398 1.80379 12.6535 1.63626C15.0178 1.55688 17.4329 1.5 19.5 1.5C21.5671 1.5 23.9823 1.55688 26.3465 1.63626C31.336 1.80379 33.8307 1.88755 35.4154 3.82263C37 5.75771 37 8.76516 37 14.7801V17.7199C37 23.7347 37 26.7423 35.4154 28.6772C33.8307 30.6123 31.3361 30.6961 26.3467 30.8637C23.9823 30.9431 21.5671 31 19.5 31C17.4329 31 15.0177 30.9431 12.6533 30.8637C7.66389 30.6961 5.1692 30.6123 3.58459 28.6772C2 26.7423 2 23.7347 2 17.7199Z" stroke="white" stroke-width="2.709"/>
</svg>
