<?xml version="1.0" encoding="UTF-8"?>
<svg id="Layer_2" data-name="Layer 2" xmlns="http://www.w3.org/2000/svg" xmlns:xlink="http://www.w3.org/1999/xlink" viewBox="0 0 602.15 59.9">
  <defs>
    <style>
      .cls-1 {
        fill: url(#linear-gradient-8);
      }

      .cls-2 {
        fill: url(#linear-gradient-7);
      }

      .cls-3 {
        fill: url(#linear-gradient-5);
      }

      .cls-4 {
        fill: url(#linear-gradient-6);
      }

      .cls-5 {
        fill: url(#linear-gradient-9);
      }

      .cls-6 {
        fill: url(#linear-gradient-4);
      }

      .cls-7 {
        fill: url(#linear-gradient-3);
      }

      .cls-8 {
        fill: url(#linear-gradient-2);
      }

      .cls-9 {
        fill: url(#linear-gradient);
      }

      .cls-10 {
        fill: url(#linear-gradient-10);
      }
    </style>
    <linearGradient id="linear-gradient" x1="117.68" y1="25.95" x2="117.68" y2="51.31" gradientTransform="translate(-.88 -1.5) rotate(.11)" gradientUnits="userSpaceOnUse">
      <stop offset="0" stop-color="#fff"/>
      <stop offset=".35" stop-color="#c9c9cb"/>
      <stop offset=".72" stop-color="#7d7d7f"/>
      <stop offset="1" stop-color="#9a999e"/>
    </linearGradient>
    <linearGradient id="linear-gradient-2" x1="419.75" y1="14.67" x2="419.75" y2="46.96" gradientTransform="translate(1.7 .8) rotate(-.15)" xlink:href="#linear-gradient"/>
    <linearGradient id="linear-gradient-3" x1="419.75" y1="14.67" x2="419.75" y2="46.96" gradientTransform="translate(1.7 .8) rotate(-.15)" xlink:href="#linear-gradient"/>
    <linearGradient id="linear-gradient-4" x1="419.75" y1="14.67" x2="419.75" y2="46.96" gradientTransform="translate(1.7 .8) rotate(-.15)" xlink:href="#linear-gradient"/>
    <linearGradient id="linear-gradient-5" x1="419.75" y1="14.67" x2="419.75" y2="46.96" gradientTransform="translate(1.7 .8) rotate(-.15)" xlink:href="#linear-gradient"/>
    <linearGradient id="linear-gradient-6" x1="419.75" y1="14.67" x2="419.75" y2="46.96" gradientTransform="translate(1.7 .8) rotate(-.15)" xlink:href="#linear-gradient"/>
    <linearGradient id="linear-gradient-7" x1="419.75" y1="14.67" x2="419.75" y2="46.96" gradientTransform="translate(1.7 .8) rotate(-.15)" xlink:href="#linear-gradient"/>
    <linearGradient id="linear-gradient-8" x1="419.75" y1="14.67" x2="419.75" y2="46.96" gradientTransform="translate(1.7 .8) rotate(-.15)" xlink:href="#linear-gradient"/>
    <linearGradient id="linear-gradient-9" x1="419.75" y1="14.67" x2="419.75" y2="46.96" gradientTransform="translate(1.7 .8) rotate(-.15)" xlink:href="#linear-gradient"/>
    <linearGradient id="linear-gradient-10" x1="419.75" y1="14.67" x2="419.75" y2="46.96" gradientTransform="translate(1.7 .8) rotate(-.15)" xlink:href="#linear-gradient"/>
  </defs>
  <g id="Layer_4" data-name="Layer 4">
    <g>
      <path class="cls-9" d="M.48,58.65C.16,58.33,0,57.95,0,57.52L.08,15.53c0-.47.15-.87.46-1.2.3-.32.69-.48,1.17-.48l17.79.03c5.69.01,10.14,1.31,13.35,3.91,3.21,2.59,4.81,6.24,4.8,10.94,0,3.02-.71,5.58-2.12,7.7-1.41,2.11-3.34,3.75-5.8,4.91l8.7,15.8c.13.26.19.5.19.71,0,.35-.13.66-.39.94-.26.28-.58.42-.97.42l-9.12-.02c-1.25,0-2.13-.59-2.65-1.75l-7.09-14.05h-6.21s-.03,14.16-.03,14.16c0,.47-.16.86-.49,1.16-.32.3-.72.45-1.2.45l-8.86-.02c-.43,0-.81-.16-1.13-.49ZM19.39,33.87c1.85,0,3.27-.46,4.24-1.38.97-.92,1.46-2.21,1.46-3.85,0-1.64-.48-2.96-1.45-3.95-.97-.99-2.38-1.49-4.24-1.5h-7.18s-.02,10.66-.02,10.66h7.18Z"/>
      <path class="cls-9" d="M45.81,55.4c-3.53-2.98-5.4-7.36-5.6-13.15-.04-1.21-.06-3.06-.05-5.56,0-2.5.03-4.38.08-5.63.18-5.69,2.08-10.08,5.69-13.16,3.61-3.08,8.43-4.61,14.47-4.6,5.99.01,10.79,1.56,14.39,4.65,3.6,3.09,5.47,7.48,5.64,13.18.08,2.5.12,4.38.12,5.63,0,1.29-.05,3.15-.14,5.56-.23,5.78-2.1,10.15-5.62,13.12-3.52,2.97-8.35,4.45-14.47,4.44-6.13-.01-10.95-1.51-14.48-4.49ZM65.69,48.16c1.34-1.36,2.06-3.44,2.15-6.24.09-2.5.14-4.29.14-5.37,0-1.08-.04-2.82-.12-5.24-.08-2.8-.79-4.89-2.12-6.25-1.33-1.36-3.12-2.04-5.37-2.05-2.29,0-4.1.67-5.44,2.03-1.34,1.36-2.06,3.44-2.15,6.24-.05,1.21-.07,2.96-.07,5.24,0,2.33.01,4.12.05,5.37.08,2.8.79,4.89,2.12,6.25,1.33,1.36,3.14,2.04,5.43,2.05,2.24,0,4.03-.67,5.37-2.03Z"/>
      <path class="cls-9" d="M85.05,58.81c-.32-.32-.48-.7-.48-1.13l.08-42.06c0-.47.16-.86.49-1.16.32-.3.7-.45,1.13-.45l9.06.02c.47,0,.86.15,1.16.46.3.3.45.69.45,1.17l-.06,33.52,19.41.04c.47,0,.87.16,1.2.49.32.32.48.72.48,1.2v6.86c-.01.47-.17.86-.5,1.16-.32.3-.72.45-1.2.45l-30.09-.06c-.43,0-.81-.16-1.13-.49Z"/>
      <path class="cls-9" d="M120.63,58.88c-.32-.32-.48-.7-.48-1.13l.08-41.99c0-.47.15-.87.46-1.2s.69-.48,1.17-.48l30.54.06c.47,0,.87.16,1.2.49.32.32.48.72.48,1.2v6.41c-.01.48-.18.86-.5,1.16-.32.3-.72.45-1.2.45l-20.45-.04-.02,8.22,19.02.04c.47,0,.87.16,1.2.49.32.32.48.72.48,1.2v5.89c-.01.48-.17.87-.5,1.2s-.72.48-1.2.48l-19.02-.04-.02,8.41,20.96.04c.47,0,.87.16,1.2.49.32.32.48.72.48,1.2v6.41c-.01.47-.18.86-.5,1.16-.32.3-.72.45-1.2.45l-31.06-.06c-.43,0-.81-.16-1.13-.49Z"/>
      <path class="cls-9" d="M168.9,59c-.32-.3-.48-.69-.48-1.17l.06-33.13-11.39-.02c-.48,0-.87-.15-1.2-.46-.32-.3-.48-.69-.48-1.17v-7.25c.01-.47.18-.87.5-1.2.32-.32.72-.48,1.2-.48l35.13.07c.47,0,.87.16,1.2.49.32.32.48.72.48,1.2v7.25c-.02.48-.18.86-.5,1.16-.32.3-.72.45-1.2.45l-11.39-.02-.06,33.13c0,.47-.16.86-.49,1.16-.32.3-.72.45-1.2.45l-8.99-.02c-.48,0-.87-.15-1.2-.46Z"/>
      <path class="cls-9" d="M188.24,59.07c-.28-.28-.42-.59-.42-.94,0-.26.02-.45.07-.58l15.15-41.44c.43-1.25,1.3-1.87,2.59-1.87l10.09.02c1.29,0,2.16.63,2.58,1.88l15,41.5c.04.13.06.33.06.58,0,.35-.14.66-.42.94-.28.28-.59.42-.94.42l-8.41-.02c-1.04,0-1.77-.48-2.2-1.43l-2.32-6.28-16.95-.03-2.34,6.27c-.43.95-1.17,1.42-2.2,1.42l-8.41-.02c-.35,0-.66-.14-.94-.42ZM204.87,42.12l11.52.02-5.73-16.51-5.79,16.49Z"/>
    </g>
    <g>
      <path class="cls-8" d="M241.51,58.7c-.32-.32-.49-.7-.49-1.13l-.11-41.99c0-.47.15-.87.45-1.2.3-.32.69-.49,1.16-.49l17.02-.04c6.38-.02,11.35,1.49,14.89,4.52,3.54,3.03,5.41,7.39,5.6,13.09.05,1.25.07,2.91.08,4.98,0,2.07-.01,3.71-.05,4.92-.4,11.82-7.09,17.75-20.08,17.78l-17.34.04c-.43,0-.81-.16-1.13-.48ZM259.64,49.43c2.72,0,4.72-.66,6.01-1.96s1.97-3.37,2.05-6.22c.08-1.25.12-2.87.12-4.85,0-1.98-.05-3.58-.14-4.79-.09-2.76-.84-4.79-2.25-6.11-1.41-1.31-3.47-1.96-6.18-1.96l-6.15.02.07,25.88,6.47-.02Z"/>
      <path class="cls-7" d="M284.8,58.59c-.32-.32-.49-.7-.49-1.13l-.11-41.99c0-.47.15-.87.45-1.2.3-.32.69-.49,1.16-.49l30.54-.08c.47,0,.87.16,1.2.48.32.32.49.72.49,1.2l.02,6.41c0,.48-.16.86-.48,1.17-.32.3-.72.46-1.2.46l-20.45.05.02,8.22,19.02-.05c.47,0,.87.16,1.2.48.32.32.49.72.49,1.2l.02,5.89c0,.48-.16.87-.48,1.2-.32.33-.72.49-1.2.49l-19.02.05.02,8.41,20.96-.05c.47,0,.87.16,1.2.48.32.32.49.72.49,1.2l.02,6.41c0,.47-.16.86-.48,1.17-.32.3-.72.46-1.2.46l-31.06.08c-.43,0-.81-.16-1.13-.48Z"/>
      <path class="cls-6" d="M333.45,58.46c-.32-.32-.49-.7-.49-1.13l-.11-41.99c0-.47.15-.87.45-1.2.3-.32.69-.49,1.16-.49l18.31-.05c5.61-.01,10.01,1.25,13.21,3.78,3.2,2.54,4.8,6.26,4.82,11.18s-1.57,8.6-4.76,11.04c-3.19,2.45-7.58,3.68-13.19,3.69l-7.38.02.04,13.98c0,.43-.15.81-.45,1.13-.3.32-.69.49-1.16.49l-9.32.02c-.43,0-.81-.16-1.13-.48ZM352.51,34.05c1.77,0,3.16-.47,4.17-1.4,1.01-.93,1.52-2.3,1.51-4.11,0-1.68-.47-3.04-1.4-4.07s-2.37-1.55-4.31-1.54l-7.25.02.03,11.13,7.25-.02Z"/>
      <path class="cls-3" d="M374.15,58.36c-.32-.32-.49-.7-.49-1.13l-.11-41.99c0-.47.15-.87.45-1.2s.69-.49,1.16-.49l17.79-.05c5.69-.01,10.15,1.27,13.37,3.85,3.22,2.58,4.84,6.22,4.85,10.92,0,3.02-.69,5.59-2.08,7.7-1.4,2.12-3.32,3.76-5.78,4.93l8.78,15.76c.13.26.2.5.2.71,0,.35-.13.66-.39.94-.26.28-.58.42-.97.42l-9.12.02c-1.25,0-2.14-.58-2.66-1.74l-7.15-14.02-6.21.02.04,14.17c0,.47-.16.86-.48,1.17-.32.3-.72.46-1.2.46l-8.86.02c-.43,0-.81-.16-1.13-.48ZM392.94,33.49c1.85,0,3.27-.47,4.24-1.4.97-.93,1.45-2.21,1.45-3.85,0-1.64-.49-2.95-1.47-3.94-.97-.99-2.39-1.48-4.24-1.48l-7.18.02.03,10.67,7.18-.02Z"/>
      <path class="cls-4" d="M415.88,58.25c-.32-.32-.49-.7-.49-1.13l-.11-41.99c0-.47.15-.87.45-1.2s.69-.49,1.16-.49l30.54-.08c.47,0,.87.16,1.2.48.32.32.49.72.49,1.2l.02,6.41c0,.48-.16.86-.48,1.17-.32.3-.72.46-1.2.46l-20.45.05.02,8.22,19.02-.05c.47,0,.87.16,1.2.48.32.32.49.72.49,1.2l.02,5.89c0,.48-.16.87-.48,1.2-.32.33-.72.49-1.2.49l-19.02.05.02,8.41,20.96-.05c.47,0,.87.16,1.2.48s.49.72.49,1.2l.02,6.41c0,.47-.16.86-.48,1.17-.32.3-.72.46-1.2.46l-31.06.08c-.43,0-.81-.16-1.13-.48ZM419.28,9.29c0-.39.15-.73.45-1.04l6.71-7.07c.43-.43.81-.74,1.13-.91.32-.17.7-.26,1.13-.26L434.52,0c.43,0,.81.08,1.13.26.32.17.7.47,1.13.9l6.75,7.04c.3.3.46.65.46,1.03,0,.6-.32.91-.97.91h-3.43c-.95.01-1.71-.14-2.27-.44l-5.7-3.09-5.69,3.12c-.56.3-1.32.46-2.26.46h-3.43c-.65.01-.97-.29-.97-.89Z"/>
      <path class="cls-2" d="M454.18,58.18c-.32-.3-.49-.69-.49-1.16l-.11-41.99c0-.47.16-.87.48-1.2s.72-.49,1.2-.49l7.31-.02c1.08,0,1.85.47,2.33,1.42l11.18,19.9,11.14-19.96c.47-.95,1.25-1.43,2.33-1.43l7.31-.02c.47,0,.87.16,1.2.48s.49.72.49,1.2l.11,41.99c0,.47-.16.86-.48,1.17-.32.3-.72.46-1.2.46l-8.22.02c-.43,0-.81-.16-1.13-.48-.32-.32-.49-.7-.49-1.13l-.06-23.55-6.96,12.83c-.56.99-1.31,1.49-2.26,1.49h-3.49c-.86.01-1.62-.48-2.27-1.47l-6.96-12.79.06,23.55c0,.47-.16.86-.48,1.17-.32.3-.72.46-1.2.46l-8.15.02c-.48,0-.88-.15-1.2-.45Z"/>
      <path class="cls-1" d="M504.71,58.02c-.32-.32-.49-.7-.49-1.13l-.11-42.06c0-.47.16-.86.48-1.17.32-.3.7-.45,1.13-.46l9.25-.02c.47,0,.86.15,1.17.45s.46.69.46,1.16l.11,42.06c0,.43-.15.81-.45,1.13-.3.32-.69.49-1.16.49l-9.25.02c-.43,0-.81-.16-1.13-.48Z"/>
      <path class="cls-5" d="M526.54,54.63c-3.54-2.97-5.43-7.34-5.66-13.12-.05-1.21-.07-3.06-.08-5.56,0-2.5,0-4.38.05-5.63.16-5.69,2.03-10.09,5.63-13.18,3.59-3.09,8.41-4.65,14.45-4.66,6-.02,10.8,1.51,14.41,4.59,3.61,3.08,5.51,7.46,5.7,13.15.09,2.5.14,4.38.14,5.63,0,1.29-.04,3.15-.12,5.57-.2,5.78-2.06,10.16-5.56,13.15-3.51,2.99-8.33,4.49-14.45,4.5-6.12.02-10.96-1.46-14.5-4.43ZM546.39,47.3c1.33-1.36,2.04-3.45,2.12-6.25.08-2.5.12-4.29.12-5.37,0-1.08-.05-2.82-.14-5.24-.09-2.8-.81-4.88-2.15-6.24-1.34-1.36-3.13-2.03-5.38-2.02-2.29,0-4.1.69-5.43,2.05-1.33,1.36-2.04,3.45-2.12,6.25-.04,1.21-.06,2.96-.05,5.24,0,2.33.03,4.12.08,5.37.09,2.8.81,4.88,2.15,6.24,1.34,1.36,3.15,2.03,5.44,2.02,2.24,0,4.03-.69,5.37-2.05Z"/>
      <path class="cls-10" d="M571.77,57.16c-2.94-1.2-5.16-2.79-6.68-4.77-1.52-1.98-2.32-4.14-2.41-6.46,0-.39.14-.71.42-.97.28-.26.61-.39,1-.39l8.6-.02c.52,0,.94.08,1.26.26.32.17.68.47,1.07.9.56,1.03,1.44,1.88,2.63,2.55,1.19.67,2.77,1,4.76.99,2.33,0,4.12-.37,5.37-1.08,1.25-.72,1.87-1.7,1.87-2.95,0-.91-.33-1.65-.98-2.23-.65-.58-1.68-1.1-3.11-1.54-1.43-.45-3.48-.95-6.15-1.5-5.22-1.02-9.13-2.58-11.72-4.69-2.59-2.11-3.9-5.12-3.91-9.05,0-2.67.73-5.06,2.21-7.16s3.59-3.73,6.33-4.9c2.74-1.17,5.92-1.76,9.54-1.77,3.79,0,7.09.64,9.87,1.95s4.92,2.94,6.42,4.9c1.49,1.96,2.28,3.89,2.38,5.79,0,.39-.13.72-.39,1-.26.28-.58.42-.97.42l-9.06.02c-.95,0-1.68-.38-2.2-1.16-.26-.91-.93-1.67-2.01-2.29-1.08-.62-2.42-.93-4.01-.93-1.81,0-3.21.33-4.2.98-.99.65-1.48,1.6-1.48,2.85,0,1.25.65,2.23,1.95,2.94s3.71,1.42,7.25,2.15c4.06.72,7.28,1.63,9.68,2.72,2.4,1.09,4.17,2.51,5.32,4.26,1.15,1.74,1.72,3.95,1.73,6.63,0,2.93-.83,5.48-2.5,7.64-1.68,2.16-4,3.82-6.97,4.97-2.97,1.15-6.38,1.73-10.22,1.74-4.18.01-7.74-.58-10.68-1.78Z"/>
    </g>
  </g>
</svg>